{"glyphs":{":":{"x_min":0,"x_max":289,"ha":289,"o":"m 128 420 l 146 509 l 222 509 l 204 420 z m 40 0 l 58 89 l 134 89 l 116 0 z"},"$":{"x_min":0,"x_max":532,"ha":532,"o":"m 159 -83 l 174 -12 q 99 0 59 49 q 18 99 18 179 q 18 182 19 188 q 19 194 19 198 l 78 198 q 78 195 78 189 q 77 183 77 180 q 77 124 104 89 q 131 54 184 42 l 241 328 q 165 359 129 402 q 94 445 94 507 q 94 591 151 645 q 208 698 299 698 l 312 698 l 325 759 l 370 759 l 357 694 q 425 684 463 639 q 500 594 500 523 l 500 513 l 442 513 l 442 522 q 442 574 418 604 q 394 635 347 642 l 294 373 q 386 334 422 292 q 457 250 457 180 q 457 92 395 38 q 333 -17 232 -17 l 218 -17 l 205 -83 z m 252 391 l 302 646 l 292 646 q 231 646 192 609 q 153 572 153 514 q 153 470 174 443 q 196 416 252 391 z m 228 37 q 235 37 244 36 q 247 36 247 36 q 312 36 354 75 q 397 115 397 177 q 397 226 370 259 q 343 291 282 313 z"},"?":{"x_min":0,"x_max":491,"ha":491,"o":"m 158 175 q 165 248 188 293 q 211 339 259 372 q 273 382 302 399 q 412 467 412 550 q 412 609 372 644 q 332 679 264 679 q 194 679 153 636 q 111 593 108 518 l 47 518 q 49 619 106 675 q 164 732 265 732 q 362 732 418 683 q 475 634 475 551 q 475 488 446 445 q 418 401 319 341 q 263 307 243 273 q 223 239 215 175 z m 121 0 l 136 86 l 208 86 l 190 0 z"},"<":{"x_min":0,"x_max":833,"ha":833,"o":"m 704 505 l 194 298 l 704 91 l 704 48 l 129 283 l 129 313 l 704 549 z"},"'":{"x_min":0,"x_max":139,"ha":139,"o":"m 91 700 l 91 430 l 49 430 l 49 700 z"},"=":{"x_min":0,"x_max":833,"ha":833,"o":"m 709 229 l 709 189 l 124 189 l 124 229 z m 709 406 l 709 367 l 124 367 l 124 406 z"},"a":{"x_min":0,"x_max":515,"ha":515,"o":"m 324 59 q 282 21 239 4 q 196 -14 147 -14 q 75 -14 31 26 q -13 66 -13 131 q -13 174 7 209 q 26 245 64 267 q 107 293 225 301 q 231 302 234 302 q 241 303 253 304 q 385 314 385 390 q 385 435 354 458 q 323 480 260 480 q 189 480 151 454 q 113 428 105 374 l 50 374 q 62 452 116 490 q 171 529 269 529 q 351 529 396 494 q 442 458 442 395 q 442 382 440 366 q 438 351 434 333 l 383 95 q 381 89 381 83 q 380 77 380 69 q 380 55 386 48 q 393 41 406 41 q 416 41 425 43 q 434 44 444 48 l 434 0 q 425 -5 416 -7 q 406 -9 393 -9 q 358 -9 341 8 q 324 25 324 59 z m 361 267 q 323 253 251 249 q 178 245 150 239 q 101 229 76 202 q 51 176 51 133 q 51 90 80 64 q 109 38 157 38 q 244 38 294 95 q 345 152 361 267 z"},"L":{"x_min":0,"x_max":493,"ha":493,"o":"m 8 0 l 161 719 l 228 719 l 89 61 l 463 61 l 450 0 z"},"3":{"x_min":0,"x_max":532,"ha":532,"o":"m 82 184 q 84 113 125 73 q 166 33 235 33 q 306 33 353 80 q 399 127 399 202 q 399 266 358 297 q 317 329 236 329 l 206 329 l 217 382 l 240 381 l 254 381 q 340 381 385 417 q 431 454 431 523 q 431 577 395 611 q 358 645 300 645 q 240 645 201 610 q 161 574 148 508 l 88 508 q 103 600 158 648 q 213 697 302 697 q 387 697 439 649 q 491 602 491 526 q 491 462 460 417 q 429 371 372 351 q 417 328 439 289 q 461 250 461 194 q 461 95 400 37 q 340 -21 237 -21 q 137 -21 80 33 q 22 88 21 184 z"},";":{"x_min":0,"x_max":289,"ha":289,"o":"m 119 421 l 138 509 l 215 509 l 197 421 z m 1 -135 l 8 -97 q 33 -88 46 -66 q 60 -44 67 0 l 33 0 l 53 87 l 125 87 l 106 0 q 91 -71 67 -100 q 44 -129 1 -135 z"},"J":{"x_min":0,"x_max":468,"ha":468,"o":"m -19 214 l 47 214 q 43 192 42 176 q 40 159 40 145 q 40 93 66 66 q 92 39 143 39 q 205 39 237 72 q 270 104 288 192 l 398 719 l 465 719 l 350 169 q 329 69 280 26 q 231 -18 142 -18 q 62 -18 19 21 q -25 61 -25 133 q -25 148 -24 166 q -22 183 -19 214 z"},"V":{"x_min":0,"x_max":525,"ha":525,"o":"m 166 0 l 44 719 l 106 719 l 213 85 l 511 719 l 579 719 l 236 0 z"},"\"":{"x_min":0,"x_max":269,"ha":269,"o":"m 220 700 l 220 430 l 178 430 l 178 700 z m 91 700 l 91 430 l 49 430 l 49 700 z"},"7":{"x_min":0,"x_max":532,"ha":532,"o":"m 94 0 q 144 160 229 314 q 314 468 439 625 l 64 625 l 78 679 l 519 679 l 512 628 q 386 469 299 313 q 212 158 162 0 z"},"S":{"x_min":0,"x_max":593,"ha":593,"o":"m 21 213 l 83 213 q 83 127 129 82 q 176 36 263 36 q 343 36 389 76 q 434 117 434 187 q 434 240 406 273 q 377 306 297 336 q 168 385 131 428 q 94 471 94 542 q 94 631 154 686 q 214 740 312 740 q 424 740 484 684 q 543 628 547 521 l 485 521 q 478 604 436 644 q 395 683 312 683 q 241 683 201 646 q 160 609 160 546 q 160 457 304 402 q 338 389 357 381 q 429 351 464 303 q 499 256 499 189 q 499 93 434 36 q 369 -21 257 -21 q 146 -21 83 38 q 21 97 21 201 z"},"}":{"x_min":0,"x_max":500,"ha":500,"o":"m 266 537 l 266 420 q 266 343 294 311 q 323 280 392 280 q 396 280 403 280 q 410 281 414 281 l 414 237 q 410 237 403 237 q 396 238 392 238 q 323 238 294 207 q 266 175 266 98 l 266 -19 q 266 -129 233 -166 q 199 -202 107 -202 l 86 -202 l 86 -159 l 105 -159 q 170 -159 193 -135 q 216 -110 216 -31 l 216 87 q 216 172 237 208 q 258 243 312 259 q 258 274 237 310 q 216 346 216 431 l 216 549 q 216 628 193 653 q 170 678 104 678 l 86 678 l 86 721 l 107 721 q 199 721 233 685 q 266 648 266 537 z"},"Z":{"x_min":0,"x_max":600,"ha":600,"o":"m -8 0 l 0 50 l 504 664 l 115 664 l 127 719 l 596 719 l 585 664 l 83 53 l 498 53 l 487 0 z"},"x":{"x_min":0,"x_max":422,"ha":422,"o":"m -64 0 l 156 278 l 24 519 l 85 519 l 195 321 l 352 519 l 424 519 l 222 267 l 371 0 l 304 0 l 186 223 l 8 0 z"},")":{"x_min":0,"x_max":316,"ha":316,"o":"m 136 730 q 176 622 195 531 q 214 440 214 358 q 214 216 150 77 q 87 -62 -43 -203 l -96 -203 q 35 -47 93 94 q 151 236 151 395 q 151 468 137 549 q 123 630 93 730 z"},"&":{"x_min":0,"x_max":652,"ha":652,"o":"m 254 380 q 167 346 127 300 q 87 255 87 189 q 87 124 132 81 q 176 39 246 39 q 296 39 340 58 q 384 77 422 115 z m 281 447 q 346 471 378 505 q 411 539 411 582 q 411 621 388 644 q 365 667 326 667 q 281 667 257 642 q 232 617 232 572 q 232 547 243 518 q 255 489 281 447 z m 496 0 l 453 67 q 403 22 353 2 q 303 -18 243 -18 q 144 -18 83 40 q 23 97 23 191 q 23 269 73 327 q 122 384 225 426 q 195 475 184 507 q 173 540 173 571 q 173 636 214 677 q 254 718 319 718 q 389 718 430 681 q 472 644 472 583 q 472 526 434 483 q 396 439 311 400 l 461 164 q 483 195 497 232 q 510 269 517 318 l 579 318 q 572 257 551 206 q 530 155 494 110 l 566 0 z"},"_":{"x_min":0,"x_max":500,"ha":500,"o":"m 500 -197 l 500 -236 l 0 -236 l 0 -197 z"},"v":{"x_min":0,"x_max":435,"ha":435,"o":"m 119 0 l 15 519 l 71 519 l 159 81 l 382 519 l 443 519 l 177 0 z"},"O":{"x_min":0,"x_max":749,"ha":749,"o":"m 413 682 q 286 682 199 571 q 113 460 113 297 q 113 175 172 105 q 230 36 334 36 q 463 36 549 148 q 635 260 635 430 q 635 554 578 618 q 522 682 413 682 z m 329 -22 q 195 -22 120 62 q 45 147 45 297 q 45 389 77 477 q 109 564 166 626 q 217 683 280 711 q 343 740 416 740 q 555 740 629 659 q 704 579 704 429 q 704 335 674 248 q 643 161 588 96 q 541 40 473 9 q 405 -22 329 -22 z"},"(":{"x_min":0,"x_max":316,"ha":316,"o":"m 143 -203 q 103 -95 84 -4 q 65 87 65 169 q 65 312 129 450 q 192 589 322 730 l 375 730 q 245 574 186 432 q 128 290 128 131 q 128 59 142 -22 q 156 -103 186 -203 z"},"C":{"x_min":0,"x_max":697,"ha":697,"o":"m 628 212 q 599 107 520 44 q 440 -19 340 -19 q 202 -19 124 66 q 46 151 46 302 q 46 389 75 472 q 105 555 159 619 q 208 677 274 707 q 339 738 415 738 q 528 738 594 676 q 660 615 666 503 l 602 503 q 595 588 545 635 q 496 681 411 681 q 286 681 200 572 q 115 462 115 302 q 115 178 176 108 q 237 37 344 37 q 418 37 478 84 q 538 132 563 212 z"},"W":{"x_min":0,"x_max":800,"ha":800,"o":"m 125 0 l 61 719 l 122 719 l 175 116 l 411 719 l 482 719 l 549 116 l 774 719 l 841 719 l 568 0 l 505 0 l 434 626 l 193 0 z"},"A":{"x_min":0,"x_max":579,"ha":579,"o":"m 157 279 l 421 279 l 353 658 z m -57 0 l 324 719 l 400 719 l 539 0 l 471 0 l 432 224 l 130 224 l 14 0 z"},"f":{"x_min":0,"x_max":243,"ha":243,"o":"m 12 0 l 112 472 l 31 472 l 42 519 l 122 519 l 139 598 q 155 674 180 700 q 205 726 252 726 q 264 726 278 724 q 292 722 310 718 l 300 668 q 286 671 275 672 q 265 674 258 674 q 232 674 220 660 q 207 646 197 597 l 181 519 l 270 519 l 261 472 l 171 472 l 71 0 z"},"Q":{"x_min":0,"x_max":749,"ha":749,"o":"m 357 138 l 396 178 l 488 86 q 557 138 596 229 q 635 320 635 429 q 635 554 579 617 q 523 681 414 681 q 284 681 199 573 q 114 464 114 299 q 114 172 173 104 q 232 36 342 36 q 362 36 385 41 q 408 46 437 57 z m 576 -82 l 480 15 q 437 -4 404 -12 q 371 -21 342 -21 q 198 -21 122 60 q 46 141 46 296 q 46 391 77 477 q 108 563 166 626 q 218 683 280 712 q 342 740 415 740 q 557 740 630 660 q 703 579 703 424 q 703 310 656 205 q 608 101 530 44 l 615 -41 z"},"w":{"x_min":0,"x_max":690,"ha":690,"o":"m 103 0 l 20 519 l 77 519 l 141 93 l 329 519 l 382 519 l 449 93 l 634 519 l 694 519 l 464 0 l 412 0 l 344 428 l 154 0 z"},"-":{"x_min":0,"x_max":327,"ha":327,"o":"m 16 230 l 27 288 l 270 288 l 258 230 z"},"E":{"x_min":0,"x_max":567,"ha":567,"o":"m 6 0 l 156 719 l 566 719 l 552 660 l 210 660 l 156 403 l 492 403 l 480 344 l 143 344 l 83 56 l 470 56 l 460 0 z"},"s":{"x_min":0,"x_max":483,"ha":483,"o":"m 53 162 q 59 98 96 67 q 134 35 203 35 q 266 35 302 63 q 337 91 337 140 q 337 195 208 244 l 196 249 q 115 280 86 311 q 57 342 57 390 q 57 454 107 493 q 156 532 239 532 q 327 532 374 492 q 421 452 426 374 l 370 374 q 365 430 331 457 q 296 484 230 484 q 180 484 148 459 q 116 435 116 397 q 116 366 136 346 q 157 326 227 298 q 335 255 367 222 q 398 189 398 139 q 398 71 343 28 q 288 -15 198 -15 q 103 -15 50 30 q -2 76 -7 162 z"},">":{"x_min":0,"x_max":833,"ha":833,"o":"m 704 313 l 704 283 l 129 48 l 129 91 l 639 298 l 129 505 l 129 549 z"},"l":{"x_min":0,"x_max":203,"ha":203,"o":"m -6 0 l 147 719 l 206 719 l 53 0 z"},"8":{"x_min":0,"x_max":532,"ha":532,"o":"m 259 342 q 182 342 135 296 q 89 250 89 174 q 89 109 129 71 q 170 32 239 32 q 314 32 360 78 q 406 124 406 199 q 406 264 366 303 q 326 342 259 342 z m 300 648 q 239 648 201 610 q 162 573 162 516 q 162 457 198 424 q 233 391 298 391 q 355 391 394 430 q 433 470 433 528 q 433 584 398 616 q 362 648 300 648 z m 174 379 q 135 408 116 441 q 98 474 98 515 q 98 600 154 650 q 209 701 304 701 q 389 701 443 654 q 496 606 496 531 q 496 467 465 424 q 434 380 373 360 q 422 335 447 295 q 471 255 471 199 q 471 95 410 37 q 349 -21 238 -21 q 137 -21 80 30 q 23 81 23 172 q 23 251 62 304 q 100 356 174 379 z"},"\\":{"x_min":0,"x_max":292,"ha":292,"o":"m 172 -84 l 49 738 l 97 738 l 221 -84 z"},"e":{"x_min":0,"x_max":537,"ha":537,"o":"m 88 307 l 415 307 q 416 313 416 319 q 416 325 416 333 q 416 401 379 440 q 342 480 278 480 q 206 480 158 437 q 110 393 88 307 z m 386 159 l 445 159 q 423 76 365 31 q 306 -13 219 -13 q 120 -13 67 45 q 13 103 13 209 q 13 350 86 440 q 160 531 273 531 q 370 531 423 474 q 476 417 476 312 q 476 299 473 264 q 472 256 472 252 l 78 252 q 77 235 76 220 q 75 206 75 194 q 75 122 115 80 q 154 39 224 39 q 283 39 325 70 q 367 101 386 159 z"},"b":{"x_min":0,"x_max":576,"ha":576,"o":"m 303 480 q 218 480 160 401 q 102 323 102 209 q 102 131 142 85 q 182 39 249 39 q 338 39 395 115 q 452 191 452 310 q 452 390 413 435 q 374 480 303 480 z m -6 0 l 147 719 l 206 719 l 149 452 q 186 493 225 512 q 264 531 312 531 q 404 531 460 470 q 515 409 515 308 q 515 171 441 79 q 368 -12 256 -12 q 188 -12 143 18 q 98 48 75 109 l 52 0 z"},"%":{"x_min":0,"x_max":810,"ha":810,"o":"m 500 166 q 500 121 531 90 q 563 58 608 58 q 653 58 684 89 q 715 121 715 166 q 715 211 684 242 q 653 273 608 273 q 563 273 531 242 q 500 211 500 166 z m 442 166 q 442 235 490 283 q 538 331 608 331 q 678 331 725 283 q 773 236 773 166 q 773 97 725 48 q 677 0 608 0 q 539 0 490 48 q 442 97 442 166 z m 155 -20 l 604 699 l 655 699 l 206 -20 z m 94 513 q 94 468 125 437 q 157 406 202 406 q 247 406 278 437 q 309 468 309 513 q 309 559 278 590 q 247 621 202 621 q 157 621 126 590 q 94 558 94 513 z m 37 514 q 37 583 85 631 q 133 679 202 679 q 272 679 320 631 q 368 583 368 514 q 368 445 320 396 q 271 348 202 348 q 133 348 85 396 q 37 444 37 514 z"},"m":{"x_min":0,"x_max":825,"ha":825,"o":"m -8 0 l 101 519 l 159 519 l 141 441 q 176 486 219 508 q 261 531 311 531 q 367 531 400 509 q 434 487 446 443 q 480 488 524 509 q 568 531 625 531 q 689 531 726 498 q 762 464 762 405 q 762 395 760 381 q 758 367 755 351 l 681 0 l 622 0 l 694 349 q 698 370 700 382 q 702 395 702 402 q 702 439 679 460 q 655 481 613 481 q 539 481 494 432 q 449 382 425 273 l 365 0 l 305 0 l 384 365 q 387 375 388 386 q 389 396 389 408 q 389 443 367 462 q 345 481 303 481 q 230 481 180 424 q 129 368 106 259 l 50 0 z"},"#":{"x_min":0,"x_max":769,"ha":769,"o":"m 478 423 l 346 423 l 298 285 l 429 285 z m 447 710 l 362 467 l 494 467 l 580 710 l 634 710 l 549 467 l 706 467 l 691 423 l 533 423 l 484 285 l 654 285 l 639 241 l 468 241 l 383 0 l 328 0 l 414 241 l 282 241 l 195 0 l 141 0 l 226 241 l 63 241 l 78 285 l 242 285 l 291 423 l 115 423 l 129 467 l 307 467 l 393 710 z"},",":{"x_min":0,"x_max":266,"ha":266,"o":"m -6 -135 l 0 -97 q 24 -89 37 -69 q 50 -49 60 0 l 25 0 l 45 86 l 117 86 l 98 0 q 83 -72 60 -100 q 37 -129 -6 -135 z"},"n":{"x_min":0,"x_max":534,"ha":534,"o":"m -9 0 l 101 519 l 157 519 l 141 440 q 183 485 229 507 q 274 530 324 530 q 392 530 430 494 q 469 459 469 397 q 469 382 467 368 q 465 353 462 337 l 390 0 l 331 0 l 405 345 q 408 358 410 371 q 411 384 411 396 q 411 436 385 457 q 360 478 312 478 q 230 478 180 425 q 130 372 106 260 l 51 0 z"},"h":{"x_min":0,"x_max":536,"ha":536,"o":"m -6 0 l 146 719 l 206 719 l 148 445 q 190 488 234 509 q 279 530 327 530 q 395 530 433 494 q 471 459 471 397 q 471 383 469 368 q 468 354 464 337 l 393 0 l 333 0 l 406 345 q 409 360 411 374 q 413 387 413 396 q 413 435 387 457 q 361 478 314 478 q 233 478 183 425 q 132 372 108 260 l 53 0 z"},"z":{"x_min":0,"x_max":443,"ha":443,"o":"m -45 0 l -32 62 l 341 467 l 36 467 l 47 519 l 422 519 l 408 456 l 37 52 l 367 52 l 356 0 z"},"B":{"x_min":0,"x_max":635,"ha":635,"o":"m 6 0 l 158 719 l 361 719 q 433 719 467 708 q 502 697 529 672 q 555 648 568 616 q 581 585 581 548 q 581 483 550 439 q 519 396 455 371 q 505 350 532 310 q 558 270 558 214 q 558 112 492 56 q 425 0 305 0 z m 159 405 l 346 405 q 432 405 474 438 q 516 472 516 541 q 516 603 478 631 q 440 660 357 660 l 214 660 z m 86 57 l 253 57 q 330 57 365 63 q 400 69 424 83 q 457 102 474 137 q 491 172 491 218 q 491 284 446 317 q 401 350 311 350 l 148 350 z"},"K":{"x_min":0,"x_max":590,"ha":590,"o":"m 8 0 l 160 719 l 228 719 l 152 359 l 549 719 l 638 719 l 311 425 l 554 0 l 481 0 l 263 381 l 131 263 l 75 0 z"},"R":{"x_min":0,"x_max":630,"ha":630,"o":"m 213 658 l 154 381 l 319 381 q 426 381 478 420 q 529 459 529 540 q 529 599 492 629 q 455 658 380 658 z m 158 719 l 370 719 q 479 719 538 674 q 596 628 596 544 q 596 465 558 414 q 520 364 446 345 q 483 324 500 295 q 517 266 517 222 q 517 206 517 197 q 517 188 516 180 l 509 92 q 508 82 508 73 q 508 63 508 53 q 508 36 510 27 q 513 17 519 8 l 519 0 l 445 0 q 442 10 441 19 q 440 28 440 36 q 440 45 441 69 q 442 75 442 78 l 449 172 q 450 179 450 188 q 450 198 450 219 q 450 276 421 300 q 391 324 315 324 l 142 324 l 73 0 l 6 0 z"},"T":{"x_min":0,"x_max":532,"ha":532,"o":"m 163 0 l 304 661 l 85 661 l 97 719 l 580 719 l 568 661 l 372 661 l 231 0 z"},"P":{"x_min":0,"x_max":583,"ha":583,"o":"m 146 368 l 303 368 q 405 368 453 408 q 501 448 501 533 q 501 599 461 629 q 420 660 334 660 l 205 660 z m 6 0 l 151 719 l 326 719 q 396 719 431 711 q 466 704 492 686 q 527 663 546 624 q 566 585 566 539 q 566 469 543 422 q 521 375 473 345 q 440 325 396 317 q 352 308 251 308 l 133 308 l 74 0 z"},"|":{"x_min":0,"x_max":500,"ha":500,"o":"m 272 764 l 272 -236 l 228 -236 l 228 764 z"},"t":{"x_min":0,"x_max":257,"ha":257,"o":"m 173 0 q 152 -6 139 -9 q 126 -11 114 -11 q 67 -11 44 8 q 21 26 21 64 q 21 79 24 98 q 26 117 32 142 l 101 472 l 24 472 l 34 519 l 113 519 l 144 663 l 203 663 l 172 519 l 268 519 l 258 472 l 160 472 l 88 122 q 85 105 83 95 q 82 84 82 80 q 82 58 92 50 q 102 41 127 41 q 138 41 152 44 q 167 46 184 52 z"},"M":{"x_min":0,"x_max":794,"ha":794,"o":"m 6 0 l 155 719 l 242 719 l 341 88 l 689 719 l 788 719 l 638 0 l 576 0 l 711 642 l 357 0 l 297 0 l 200 636 l 70 0 z"},"g":{"x_min":0,"x_max":576,"ha":576,"o":"m 283 480 q 195 480 136 402 q 77 324 77 211 q 77 131 117 85 q 156 39 226 39 q 315 39 372 115 q 428 192 428 311 q 428 391 390 435 q 351 480 283 480 z m -3 -56 l 55 -56 q 60 -105 94 -131 q 128 -156 188 -156 q 276 -156 319 -110 q 361 -64 382 59 q 348 23 306 6 q 265 -12 216 -12 q 124 -12 69 48 q 13 108 13 207 q 13 343 89 436 q 166 530 276 530 q 343 530 389 500 q 434 469 456 409 l 479 518 l 538 518 l 433 21 q 404 -114 351 -162 q 298 -209 190 -209 q 101 -209 52 -170 q 3 -131 -3 -56 z"},"j":{"x_min":0,"x_max":206,"ha":206,"o":"m 126 637 l 143 719 l 212 719 l 195 637 z m -113 -203 l -102 -151 q -91 -152 -86 -153 q -81 -153 -76 -153 q -53 -153 -40 -137 q -28 -122 -17 -71 l 107 519 l 166 519 l 40 -80 q 25 -151 -1 -179 q -27 -206 -76 -206 q -83 -206 -92 -205 q -102 -205 -113 -203 z"},"i":{"x_min":0,"x_max":203,"ha":203,"o":"m 123 637 l 140 719 l 209 719 l 192 637 z m -6 0 l 104 519 l 163 519 l 53 0 z"},"y":{"x_min":0,"x_max":435,"ha":435,"o":"m -52 -202 l -42 -150 q -30 -151 -22 -152 q -14 -153 -7 -153 q 17 -153 33 -141 q 49 -129 65 -99 l 119 6 l 14 519 l 74 519 l 160 79 l 383 519 l 445 519 l 131 -100 q 97 -167 69 -189 q 41 -210 0 -210 q -11 -210 -24 -208 q -36 -206 -52 -202 z"},"@":{"x_min":0,"x_max":1000,"ha":1000,"o":"m 636 404 l 666 467 l 705 467 l 638 197 q 633 179 631 165 q 628 151 628 144 q 628 123 643 111 q 658 99 685 99 q 708 99 734 109 q 759 118 784 136 q 833 172 863 237 q 893 302 893 375 q 893 508 796 590 q 698 671 539 671 q 457 671 387 647 q 318 624 261 577 q 186 515 148 432 q 110 350 110 249 q 110 89 218 -6 q 326 -101 507 -101 q 585 -101 665 -76 q 745 -52 811 -7 l 825 -29 q 754 -83 675 -109 q 595 -136 509 -136 q 417 -136 341 -114 q 265 -91 206 -46 q 132 10 95 85 q 59 159 59 255 q 59 334 84 405 q 108 476 156 534 q 226 620 324 664 q 423 708 544 708 q 622 708 693 687 q 763 665 814 626 q 876 578 909 515 q 941 453 941 380 q 941 297 910 229 q 879 162 822 116 q 789 90 751 76 q 712 62 673 62 q 626 62 603 80 q 579 98 579 133 q 579 139 581 149 q 581 151 581 152 q 557 109 520 85 q 483 62 439 62 q 364 62 325 103 q 286 143 286 221 q 286 333 352 410 q 417 487 511 487 q 558 487 589 466 q 621 445 636 404 z m 595 228 l 626 352 q 615 400 586 426 q 557 451 512 451 q 438 451 387 384 q 337 316 337 218 q 337 162 365 130 q 393 98 443 98 q 497 98 539 134 q 580 169 595 228 z"},".":{"x_min":0,"x_max":266,"ha":266,"o":"m 29 0 l 47 89 l 123 89 l 104 0 z"},"p":{"x_min":0,"x_max":576,"ha":576,"o":"m 302 480 q 217 480 159 402 q 102 323 102 209 q 102 129 141 84 q 180 38 248 38 q 336 38 394 115 q 452 193 452 313 q 452 391 412 436 q 372 480 302 480 z m -53 -207 l 102 519 l 160 519 l 145 452 q 183 492 224 511 q 265 530 314 530 q 407 530 462 469 q 517 409 517 307 q 517 172 443 80 q 368 -12 257 -12 q 190 -12 144 17 q 97 47 74 104 l 8 -207 z"},"X":{"x_min":0,"x_max":505,"ha":505,"o":"m -60 0 l 215 377 l 44 719 l 115 719 l 252 431 l 461 719 l 539 719 l 281 370 l 468 0 l 398 0 l 241 315 l 19 0 z"},"*":{"x_min":0,"x_max":500,"ha":500,"o":"m 283 501 l 195 372 l 149 405 l 247 527 l 101 566 l 118 622 l 260 570 l 258 719 l 316 719 l 306 570 l 447 621 l 467 568 l 319 527 l 419 405 l 372 371 z"},"Y":{"x_min":0,"x_max":481,"ha":481,"o":"m 140 0 l 207 321 l 26 719 l 92 719 l 244 377 l 459 719 l 532 719 l 267 304 l 206 0 z"},"c":{"x_min":0,"x_max":538,"ha":538,"o":"m 403 173 l 467 173 q 445 85 383 36 q 320 -14 232 -14 q 129 -14 72 45 q 14 104 14 210 q 14 348 89 439 q 164 530 278 530 q 375 530 428 482 q 481 434 482 346 l 425 346 q 423 409 384 445 q 345 481 280 481 q 193 481 135 403 q 76 324 76 211 q 76 130 118 84 q 160 39 234 39 q 293 39 339 75 q 385 112 403 173 z"},"!":{"x_min":0,"x_max":312,"ha":312,"o":"m 96 169 l 145 458 l 201 719 l 266 719 l 211 458 l 137 169 z m 46 0 l 65 87 l 137 87 l 120 0 z"},"/":{"x_min":0,"x_max":292,"ha":292,"o":"m 250 738 l 299 738 l 31 -84 l -18 -84 z"},"[":{"x_min":0,"x_max":330,"ha":330,"o":"m 8 -207 l 198 718 l 385 718 l 373 669 l 245 669 l 77 -157 l 203 -157 l 193 -207 z"},"6":{"x_min":0,"x_max":532,"ha":532,"o":"m 271 401 q 195 401 150 343 q 104 286 104 190 q 104 119 142 77 q 180 35 244 35 q 313 35 360 97 q 407 158 407 249 q 407 321 371 361 q 335 401 271 401 z m 112 367 q 149 409 192 430 q 235 451 286 451 q 369 451 420 395 q 472 339 472 249 q 472 133 407 57 q 341 -19 243 -19 q 142 -19 90 45 q 37 108 37 231 q 37 437 120 568 q 203 700 331 700 q 411 700 458 654 q 506 608 506 532 l 506 521 l 448 521 q 447 581 416 613 q 384 646 328 646 q 252 646 195 573 q 138 499 112 367 z"},"r":{"x_min":0,"x_max":289,"ha":289,"o":"m -4 0 l 102 519 l 157 519 l 143 451 q 181 495 211 513 q 241 532 273 532 q 283 532 293 530 q 304 528 315 524 l 302 466 q 289 468 281 468 q 273 469 267 469 q 208 469 170 420 q 133 371 111 261 l 58 0 z"},"2":{"x_min":0,"x_max":532,"ha":532,"o":"m 2 0 q 11 87 59 151 q 108 214 219 279 q 236 290 270 308 q 353 353 383 385 q 405 409 418 440 q 430 471 430 504 q 430 570 395 607 q 360 644 298 644 q 232 644 191 602 q 149 560 135 477 l 73 477 q 88 583 147 641 q 205 699 295 699 q 386 699 441 647 q 497 594 497 510 q 497 369 273 241 l 268 238 q 167 180 128 142 q 89 103 81 60 l 431 60 l 418 0 z"},"{":{"x_min":0,"x_max":500,"ha":500,"o":"m 414 678 l 396 678 q 330 678 307 653 q 284 628 284 549 l 284 431 q 284 346 263 310 q 242 274 189 259 q 242 243 263 208 q 284 173 284 87 l 284 -31 q 284 -110 307 -135 q 330 -159 395 -159 l 414 -159 l 414 -202 l 393 -202 q 301 -202 267 -166 q 234 -129 234 -19 l 234 98 q 234 175 206 207 q 177 238 108 238 q 104 238 97 237 q 90 237 86 237 l 86 281 q 91 280 96 280 q 101 280 110 280 q 178 280 206 311 q 234 343 234 420 l 234 537 q 234 648 267 685 q 301 721 393 721 l 414 721 z"},"9":{"x_min":0,"x_max":532,"ha":532,"o":"m 260 280 q 335 280 381 337 q 427 395 427 491 q 427 562 389 604 q 351 646 287 646 q 218 646 171 584 q 124 523 124 432 q 124 360 160 320 q 195 280 260 280 z m 419 314 q 382 271 339 251 q 295 230 245 230 q 163 230 111 286 q 59 341 59 432 q 59 548 125 624 q 190 700 288 700 q 389 700 441 636 q 494 572 494 450 q 494 244 411 113 q 329 -19 200 -19 q 121 -19 73 27 q 25 72 25 149 l 25 160 l 83 160 q 84 100 115 68 q 146 35 203 35 q 279 35 336 108 q 393 182 419 314 z"}," ":{"x_min":0,"x_max":266,"ha":266,"o":""},"I":{"x_min":0,"x_max":234,"ha":234,"o":"m 8 0 l 158 719 l 226 719 l 75 0 z"},"H":{"x_min":0,"x_max":691,"ha":691,"o":"m 6 0 l 156 719 l 224 719 l 161 409 l 551 409 l 616 719 l 684 719 l 533 0 l 465 0 l 539 353 l 149 353 l 75 0 z"},"4":{"x_min":0,"x_max":532,"ha":532,"o":"m 269 0 l 308 177 l 12 177 l 22 229 l 417 679 l 476 679 l 382 225 l 486 225 l 474 177 l 370 177 l 332 0 z m 87 225 l 322 225 l 395 576 z"},"~":{"x_min":0,"x_max":833,"ha":833,"o":"m 747 316 q 695 280 648 262 q 602 244 558 244 q 510 244 428 274 q 420 277 417 278 q 412 280 401 284 q 320 313 276 313 q 235 313 190 295 q 146 276 87 235 l 87 280 q 138 316 185 333 q 232 351 276 351 q 325 351 408 321 q 414 319 417 318 q 421 316 431 313 q 513 283 558 283 q 599 283 644 302 q 688 320 747 361 z"},"D":{"x_min":0,"x_max":696,"ha":696,"o":"m 82 56 l 225 56 q 314 56 358 66 q 402 77 438 101 q 504 146 543 235 q 582 323 582 429 q 582 486 568 531 q 554 575 526 606 q 499 636 461 649 q 424 662 349 662 l 209 662 z m 6 0 l 153 719 l 347 719 q 438 719 478 707 q 519 694 554 665 q 600 626 624 565 q 648 503 648 424 q 648 326 616 240 q 583 153 525 94 q 475 43 413 22 q 352 0 224 0 l 179 0 z"},"^":{"x_min":0,"x_max":1000,"ha":1000,"o":"m 528 712 l 792 440 l 731 440 l 500 669 l 268 440 l 207 440 l 470 712 z"},"0":{"x_min":0,"x_max":532,"ha":532,"o":"m 19 239 q 19 323 44 415 q 68 507 107 569 q 147 633 200 667 q 253 700 316 700 q 413 700 464 636 q 514 572 514 449 q 514 354 488 258 q 462 163 417 92 q 382 38 331 8 q 279 -22 220 -22 q 124 -22 71 46 q 19 114 19 239 z m 315 645 q 268 645 227 616 q 187 587 156 531 q 126 477 106 393 q 87 309 87 229 q 87 133 121 83 q 155 34 222 34 q 271 34 312 65 q 353 97 382 157 q 413 219 430 301 q 448 382 448 464 q 448 554 415 600 q 381 645 315 645 z"},"F":{"x_min":0,"x_max":517,"ha":517,"o":"m 6 0 l 158 719 l 546 719 l 534 659 l 213 659 l 159 403 l 471 403 l 458 345 l 146 345 l 73 0 z"},"`":{"x_min":0,"x_max":500,"ha":500,"o":"m 357 586 l 314 586 l 176 756 l 249 756 z"},"k":{"x_min":0,"x_max":474,"ha":474,"o":"m -6 0 l 146 719 l 205 719 l 111 274 l 390 519 l 469 519 l 265 339 l 403 0 l 337 0 l 220 299 l 93 188 l 53 0 z"},"u":{"x_min":0,"x_max":534,"ha":534,"o":"m 499 519 l 389 0 l 333 0 l 349 78 q 306 33 261 11 q 216 -11 166 -11 q 98 -11 60 24 q 21 59 21 121 q 21 135 23 150 q 24 166 28 182 l 100 519 l 159 519 l 86 173 q 83 158 81 145 q 79 132 79 122 q 79 83 105 61 q 130 40 178 40 q 259 40 310 93 q 360 146 384 258 l 440 519 z"},"]":{"x_min":0,"x_max":330,"ha":330,"o":"m 279 719 l 89 -207 l -98 -207 l -86 -157 l 42 -157 l 210 669 l 84 669 l 94 719 z"},"U":{"x_min":0,"x_max":691,"ha":691,"o":"m 156 719 l 222 719 l 132 287 q 126 259 123 235 q 120 212 120 192 q 120 123 167 80 q 214 38 292 38 q 389 38 442 89 q 496 140 521 255 l 619 719 l 684 719 l 593 275 q 559 109 491 44 q 423 -20 294 -20 q 183 -20 117 35 q 52 90 52 180 q 52 227 66 297 q 67 302 68 304 z"},"o":{"x_min":0,"x_max":550,"ha":550,"o":"m 276 483 q 190 483 133 404 q 76 326 76 208 q 76 126 115 82 q 154 37 225 37 q 311 37 369 117 q 427 196 427 312 q 427 396 389 440 q 351 483 276 483 z m 13 208 q 13 347 89 440 q 166 534 280 534 q 380 534 435 475 q 490 417 490 309 q 490 167 416 76 q 341 -15 224 -15 q 125 -15 69 44 q 13 103 13 208 z"},"N":{"x_min":0,"x_max":692,"ha":692,"o":"m 6 0 l 158 719 l 233 719 l 489 79 l 621 719 l 686 719 l 536 0 l 455 0 l 204 630 l 75 0 z"},"+":{"x_min":0,"x_max":833,"ha":833,"o":"m 436 596 l 436 318 l 709 318 l 709 278 l 436 278 l 436 0 l 397 0 l 397 278 l 124 278 l 124 318 l 397 318 l 397 596 z"},"G":{"x_min":0,"x_max":737,"ha":737,"o":"m 561 94 q 512 36 457 9 q 401 -19 333 -19 q 200 -19 123 67 q 46 153 46 302 q 46 390 75 472 q 105 555 159 619 q 208 677 274 708 q 340 738 417 738 q 527 738 596 678 q 665 619 673 517 l 610 517 q 600 594 549 639 q 499 683 419 683 q 289 683 202 574 q 115 464 115 302 q 115 179 176 108 q 236 37 342 37 q 435 37 506 111 q 578 184 600 305 l 358 305 l 372 360 l 677 360 l 597 -1 l 542 -1 z"},"q":{"x_min":0,"x_max":576,"ha":576,"o":"m 282 481 q 194 481 136 403 q 77 326 77 211 q 77 130 116 85 q 155 40 225 40 q 316 40 372 115 q 428 189 428 311 q 428 393 390 437 q 353 481 282 481 z m 326 -207 l 384 63 q 346 24 307 5 q 267 -13 221 -13 q 126 -13 71 48 q 15 108 15 212 q 15 346 90 438 q 164 531 274 531 q 343 531 387 503 q 432 475 459 414 l 482 520 l 540 520 l 385 -207 z"},"d":{"x_min":0,"x_max":574,"ha":574,"o":"m 277 480 q 191 480 134 403 q 76 325 76 209 q 76 129 115 85 q 154 40 224 40 q 314 40 370 116 q 426 192 426 316 q 426 394 387 437 q 348 480 277 480 z m 371 0 l 384 65 q 349 25 307 5 q 266 -14 217 -14 q 124 -14 69 47 q 14 107 14 209 q 14 344 88 437 q 163 530 273 530 q 340 530 384 501 q 427 473 453 412 l 518 719 l 578 719 l 425 0 z"},"1":{"x_min":0,"x_max":532,"ha":532,"o":"m 190 0 l 312 574 q 259 542 211 525 q 163 508 115 502 l 123 548 q 213 575 265 610 q 317 645 350 699 l 400 699 l 251 0 z"},"5":{"x_min":0,"x_max":532,"ha":532,"o":"m 89 165 q 91 104 128 69 q 165 33 227 33 q 304 33 355 94 q 406 154 406 247 q 406 317 366 357 q 327 398 260 398 q 219 398 184 380 q 148 363 114 326 l 60 331 l 161 679 l 496 679 l 484 623 l 200 623 l 137 408 q 169 429 203 440 q 237 450 274 450 q 361 450 415 394 q 469 337 469 246 q 469 127 401 53 q 333 -21 225 -21 q 134 -21 80 30 q 26 80 26 165 z"}}}
